<svg width="29" height="29" viewBox="0 0 29 29" fill="none" xmlns="http://www.w3.org/2000/svg">
<path d="M20.8708 14.7154C20.8599 12.8506 21.7048 11.4451 23.411 10.4088C22.4567 9.0416 21.013 8.28965 19.1099 8.14473C17.3079 8.00254 15.3364 9.19473 14.6146 9.19473C13.8517 9.19473 12.1071 8.19395 10.7345 8.19395C7.90166 8.2377 4.89111 10.4525 4.89111 14.9588C4.89111 16.2904 5.13447 17.6658 5.62119 19.0822C6.27197 20.9471 8.61807 25.5162 11.0653 25.4424C12.345 25.4123 13.2501 24.5346 14.9153 24.5346C16.5313 24.5346 17.3681 25.4424 18.7954 25.4424C21.2646 25.4068 23.3864 21.2533 24.0044 19.383C20.6931 17.8217 20.8708 14.8111 20.8708 14.7154V14.7154ZM17.997 6.37559C19.3833 4.72949 19.2575 3.23105 19.2165 2.69238C17.9915 2.76348 16.5751 3.52637 15.7685 4.46426C14.8798 5.47051 14.3575 6.71465 14.4696 8.11738C15.7931 8.21855 17.0017 7.53769 17.997 6.37559V6.37559Z" fill="black"/>
</svg>
