<svg width="66" height="66" viewBox="0 0 66 66" fill="none" xmlns="http://www.w3.org/2000/svg">
<rect x="0.10376" y="0.0673828" width="65" height="65" rx="32.5" fill="white"/>
<path d="M32.6038 16.3174C30.595 16.3174 28.6314 16.913 26.9613 18.029C25.2911 19.145 23.9893 20.7312 23.2206 22.587C22.4519 24.4428 22.2508 26.4849 22.6427 28.455C23.0345 30.4251 24.0018 32.2348 25.4222 33.6552C26.8426 35.0756 28.6523 36.0429 30.6224 36.4347C32.5925 36.8266 34.6346 36.6255 36.4904 35.8568C38.3462 35.0881 39.9324 33.7863 41.0484 32.1161C42.1644 30.446 42.76 28.4823 42.76 26.4736C42.76 23.78 41.69 21.1967 39.7853 19.2921C37.8807 17.3874 35.2974 16.3174 32.6038 16.3174ZM32.6038 32.5674C31.3985 32.5674 30.2204 32.21 29.2183 31.5404C28.2161 30.8708 27.4351 29.9191 26.9739 28.8056C26.5127 27.6921 26.392 26.4669 26.6271 25.2848C26.8622 24.1027 27.4426 23.0169 28.2948 22.1647C29.1471 21.3125 30.2329 20.7321 31.4149 20.497C32.597 20.2618 33.8223 20.3825 34.9357 20.8437C36.0492 21.305 37.0009 22.086 37.6705 23.0881C38.3401 24.0902 38.6975 25.2684 38.6975 26.4736C38.6959 28.0893 38.0534 29.6383 36.9109 30.7808C35.7685 31.9232 34.2194 32.5658 32.6038 32.5674Z" fill="#999999"/>
<path d="M32.6038 4.12988C26.9794 4.12988 21.4813 5.79771 16.8047 8.92247C12.1282 12.0472 8.48332 16.4885 6.33095 21.6848C4.17858 26.8811 3.61542 32.5989 4.71269 38.1153C5.80996 43.6316 8.51837 48.6987 12.4954 52.6757C16.4725 56.6528 21.5396 59.3612 27.0559 60.4585C32.5722 61.5557 38.2901 60.9926 43.4863 58.8402C48.6826 56.6878 53.1239 53.0429 56.2487 48.3664C59.3734 43.6899 61.0413 38.1918 61.0413 32.5674C61.0327 25.0279 58.0338 17.7997 52.7026 12.4685C47.3714 7.13733 40.1432 4.13848 32.6038 4.12988V4.12988ZM20.4163 53.6457V50.8486C20.4179 49.233 21.0604 47.6839 22.2029 46.5415C23.3453 45.399 24.8944 44.7565 26.51 44.7549H38.6975C40.3132 44.7565 41.8622 45.399 43.0047 46.5415C44.1471 47.6839 44.7897 49.233 44.7913 50.8486V53.6457C41.0927 55.8053 36.8867 56.9434 32.6038 56.9434C28.3208 56.9434 24.1148 55.8053 20.4163 53.6457V53.6457ZM48.8375 50.6983C48.797 48.034 47.7115 45.4922 45.8148 43.6206C43.9182 41.749 41.3622 40.6974 38.6975 40.6924H26.51C23.8454 40.6974 21.2894 41.749 19.3927 43.6206C17.496 45.4922 16.4105 48.034 16.37 50.6983C12.6865 47.4092 10.0888 43.0788 8.92109 38.2806C7.75334 33.4824 8.07054 28.4426 9.83069 23.8287C11.5909 19.2147 14.7109 15.2442 18.7778 12.4429C22.8447 9.64161 27.6665 8.14165 32.6048 8.14165C37.5431 8.14165 42.3649 9.64161 46.4318 12.4429C50.4986 15.2442 53.6187 19.2147 55.3789 23.8287C57.139 28.4426 57.4562 33.4824 56.2885 38.2806C55.1207 43.0788 52.5231 47.4092 48.8396 50.6983H48.8375Z" fill="#999999"/>
</svg>
