<svg width="25" height="25" viewBox="0 0 25 25" fill="none" xmlns="http://www.w3.org/2000/svg">
<path d="M10.3137 9.94727C10.019 10.2219 9.78256 10.5531 9.6186 10.9211C9.45463 11.2891 9.36646 11.6864 9.35935 12.0892C9.35225 12.492 9.42635 12.8921 9.57723 13.2657C9.72811 13.6392 9.95269 13.9785 10.2376 14.2634C10.5224 14.5483 10.8618 14.7729 11.2353 14.9238C11.6089 15.0746 12.009 15.1487 12.4118 15.1416C12.8146 15.1345 13.2119 15.0464 13.5799 14.8824C13.9479 14.7184 14.2791 14.482 14.5537 14.1873" stroke="#60778C" stroke-width="2" stroke-linecap="round" stroke-linejoin="round"/>
<path d="M11.1646 5.14738C11.5859 5.09489 12.01 5.06818 12.4346 5.06738C19.4346 5.06738 22.4346 12.0674 22.4346 12.0674C21.9875 13.0245 21.4268 13.9243 20.7646 14.7474" stroke="#60778C" stroke-width="2" stroke-linecap="round" stroke-linejoin="round"/>
<path d="M7.04408 6.67773C5.05508 8.03273 3.46408 9.89273 2.43408 12.0677C2.43408 12.0677 5.43408 19.0677 12.4341 19.0677C14.3501 19.0728 16.2251 18.5128 17.8241 17.4577" stroke="#60778C" stroke-width="2" stroke-linecap="round" stroke-linejoin="round"/>
<path d="M2.43408 2.06738L22.4341 22.0674" stroke="#60778C" stroke-width="2" stroke-linecap="round" stroke-linejoin="round"/>
</svg>
