<svg width="27" height="27" viewBox="0 0 27 27" fill="none" xmlns="http://www.w3.org/2000/svg">
<rect x="0.434082" y="0.0673828" width="26.0027" height="26" rx="13" fill="#1A1A1A"/>
<path d="M8.98513 18.0674C8.90898 18.0672 8.83369 18.0513 8.76405 18.0205C8.69441 17.9897 8.63194 17.9447 8.58062 17.8884C8.52836 17.8327 8.48849 17.7665 8.46361 17.6942C8.43874 17.6219 8.42942 17.5452 8.43626 17.4691L8.57074 15.9905L14.7828 9.78056L16.7242 11.7214L10.5137 17.9307L9.03508 18.0652C9.01847 18.0667 9.00181 18.0674 8.98513 18.0674V18.0674ZM17.1117 11.3333L15.1709 9.39251L16.335 8.22836C16.386 8.17733 16.4465 8.13684 16.5132 8.10922C16.5798 8.0816 16.6512 8.06738 16.7234 8.06738C16.7955 8.06738 16.8669 8.0816 16.9335 8.10922C17.0002 8.13684 17.0607 8.17733 17.1117 8.22836L18.2758 9.39251C18.3269 9.44348 18.3673 9.50402 18.395 9.57065C18.4226 9.63728 18.4368 9.7087 18.4368 9.78083C18.4368 9.85296 18.4226 9.92439 18.395 9.99102C18.3673 10.0576 18.3269 10.1182 18.2758 10.1692L17.1122 11.3328L17.1117 11.3333V11.3333Z" fill="white"/>
</svg>
