<svg width="25" height="25" viewBox="0 0 25 25" fill="none" xmlns="http://www.w3.org/2000/svg">
<path d="M11.1832 5.0376H5.11906C4.65955 5.0376 4.21885 5.22014 3.89392 5.54507C3.56899 5.87 3.38644 6.3107 3.38644 6.77022V18.8986C3.38644 19.3581 3.56899 19.7988 3.89392 20.1237C4.21885 20.4486 4.65955 20.6312 5.11906 20.6312H17.2474C17.7069 20.6312 18.1476 20.4486 18.4726 20.1237C18.7975 19.7988 18.98 19.3581 18.98 18.8986V12.8344" stroke="#343434" stroke-width="1.2" stroke-linecap="round" stroke-linejoin="round"/>
<path d="M17.6839 4.04192C18.0285 3.69728 18.496 3.50366 18.9834 3.50366C19.4708 3.50366 19.9382 3.69728 20.2828 4.04192C20.6275 4.38656 20.8211 4.85399 20.8211 5.34138C20.8211 5.82878 20.6275 6.29621 20.2828 6.64085L12.7836 13.7505L9.31833 14.6168L10.1846 11.1515L17.6839 4.04192Z" stroke="#343434" stroke-width="1.2" stroke-linecap="round" stroke-linejoin="round"/>
</svg>
