<svg width="25" height="25" viewBox="0 0 25 25" fill="none" xmlns="http://www.w3.org/2000/svg">
<path d="M19.437 11.0674H5.43701C4.33244 11.0674 3.43701 11.9628 3.43701 13.0674V20.0674C3.43701 21.172 4.33244 22.0674 5.43701 22.0674H19.437C20.5416 22.0674 21.437 21.172 21.437 20.0674V13.0674C21.437 11.9628 20.5416 11.0674 19.437 11.0674Z" stroke="#E4001B" stroke-width="2" stroke-linecap="round" stroke-linejoin="round"/>
<path d="M7.43701 11.0674V7.06738C7.43701 5.7413 7.9638 4.46953 8.90148 3.53185C9.83916 2.59417 11.1109 2.06738 12.437 2.06738C13.7631 2.06738 15.0349 2.59417 15.9725 3.53185C16.9102 4.46953 17.437 5.7413 17.437 7.06738V11.0674" stroke="#E4001B" stroke-width="2" stroke-linecap="round" stroke-linejoin="round"/>
</svg>
