<svg width="25" height="25" viewBox="0 0 25 25" fill="none" xmlns="http://www.w3.org/2000/svg">
<path d="M21.437 10.0673V8.06729C21.4367 7.71656 21.3441 7.37209 21.1686 7.06845C20.993 6.7648 20.7407 6.51265 20.437 6.33729L13.437 2.33729C13.133 2.16175 12.7881 2.06934 12.437 2.06934C12.0859 2.06934 11.7411 2.16175 11.437 2.33729L4.43701 6.33729C4.13327 6.51265 3.88099 6.7648 3.70547 7.06845C3.52995 7.37209 3.43737 7.71656 3.43701 8.06729V16.0673C3.43737 16.418 3.52995 16.7625 3.70547 17.0661C3.88099 17.3698 4.13327 17.6219 4.43701 17.7973L11.437 21.7973C11.7411 21.9728 12.0859 22.0652 12.437 22.0652C12.7881 22.0652 13.133 21.9728 13.437 21.7973L15.437 20.6573" stroke="#E4001B" stroke-width="2" stroke-linecap="round" stroke-linejoin="round"/>
<path d="M16.9371 9.46737L7.98706 4.30737" stroke="#E4001B" stroke-width="2" stroke-linecap="round" stroke-linejoin="round"/>
<path d="M12.4371 12.0674V22.0674V12.0674ZM3.72705 7.06738L12.4371 12.0674L3.72705 7.06738ZM12.4371 12.0674L21.147 7.06738L12.4371 12.0674Z" stroke="#E4001B" stroke-width="2" stroke-linecap="round" stroke-linejoin="round"/>
<path d="M18.937 18.0674C20.3177 18.0674 21.437 16.9481 21.437 15.5674C21.437 14.1867 20.3177 13.0674 18.937 13.0674C17.5563 13.0674 16.437 14.1867 16.437 15.5674C16.437 16.9481 17.5563 18.0674 18.937 18.0674Z" stroke="#E4001B" stroke-width="2" stroke-linecap="round" stroke-linejoin="round"/>
<path d="M20.707 17.3374L22.437 19.0674" stroke="#E4001B" stroke-width="2" stroke-linecap="round" stroke-linejoin="round"/>
</svg>
