<svg width="21" height="21" viewBox="0 0 21 21" fill="none" xmlns="http://www.w3.org/2000/svg">
<g clip-path="url(#clip0_401_726)">
<path d="M18.4371 14.1673V16.6673C18.438 16.8994 18.3905 17.1291 18.2975 17.3418C18.2045 17.5544 18.0682 17.7453 17.8972 17.9022C17.7261 18.0591 17.5242 18.1785 17.3044 18.2529C17.0845 18.3272 16.8516 18.3549 16.6204 18.334C14.0561 18.0553 11.5929 17.1791 9.42876 15.7756C7.41528 14.4962 5.70821 12.7891 4.42876 10.7756C3.02041 8.60164 2.14396 6.12646 1.87043 3.55063C1.8496 3.32019 1.87699 3.08793 1.95084 2.86865C2.0247 2.64937 2.1434 2.44788 2.2994 2.27699C2.45539 2.1061 2.64526 1.96956 2.85692 1.87607C3.06857 1.78258 3.29738 1.73419 3.52876 1.73397H6.02876C6.43318 1.72999 6.82525 1.8732 7.13189 2.13691C7.43854 2.40062 7.63882 2.76684 7.69543 3.1673C7.80095 3.96736 7.99663 4.75291 8.27876 5.50897C8.39088 5.80724 8.41515 6.1314 8.34868 6.44303C8.28222 6.75467 8.12781 7.04073 7.90376 7.2673L6.84543 8.32563C8.03172 10.4119 9.75914 12.1393 11.8454 13.3256L12.9038 12.2673C13.1303 12.0432 13.4164 11.8888 13.728 11.8224C14.0397 11.7559 14.3638 11.7802 14.6621 11.8923C15.4182 12.1744 16.2037 12.3701 17.0038 12.4756C17.4086 12.5327 17.7783 12.7366 18.0425 13.0485C18.3068 13.3605 18.4472 13.7586 18.4371 14.1673Z" stroke="#E4001B" stroke-width="1.5" stroke-linecap="round" stroke-linejoin="round"/>
</g>
<defs>
<clipPath id="clip0_401_726">
<rect width="20" height="20" fill="white" transform="translate(0.10376 0.0673828)"/>
</clipPath>
</defs>
</svg>
