<svg width="28" height="24" viewBox="0 0 28 24" fill="none" xmlns="http://www.w3.org/2000/svg">
<path fill-rule="evenodd" clip-rule="evenodd" d="M0.382346 11.9203C0.37888 11.5791 0.476895 11.2509 0.654831 11.0078C0.832766 10.7647 1.07605 10.6267 1.33115 10.6241L24.018 10.3936L17.8817 2.36106C17.6986 2.12134 17.5938 1.79476 17.5903 1.45315C17.5869 1.11155 17.685 0.7829 17.8632 0.539513C18.0413 0.296126 18.2849 0.157935 18.5403 0.15534C18.7958 0.152745 19.0421 0.285957 19.2252 0.525674L27.0248 10.7387C27.1155 10.8573 27.1881 10.9985 27.2381 11.1543C27.2882 11.3101 27.3149 11.4774 27.3166 11.6466C27.3183 11.8158 27.2951 11.9836 27.2482 12.1404C27.2012 12.2972 27.1316 12.4398 27.0433 12.5602L19.4528 22.9296C19.2747 23.173 19.0311 23.3112 18.7756 23.3138C18.5202 23.3164 18.2739 23.1832 18.0908 22.9435C17.9077 22.7038 17.8029 22.3772 17.7995 22.0356C17.796 21.694 17.8941 21.3653 18.0723 21.1219L24.0441 12.9664L1.35729 13.1969C1.10219 13.1995 0.856154 13.0664 0.673316 12.827C0.490478 12.5876 0.385813 12.2614 0.382346 11.9203V11.9203Z" fill="white"/>
</svg>
