<svg width="21" height="21" viewBox="0 0 21 21" fill="none" xmlns="http://www.w3.org/2000/svg">
<path d="M19.1895 9.96473H14.7502C14.2092 9.96473 13.7295 10.3311 13.5636 10.8729C13.1238 12.306 11.8668 13.268 10.437 13.268C9.00677 13.268 7.75018 12.306 7.31067 10.8729C7.14433 10.3311 6.66506 9.96473 6.1236 9.96473H1.68457C0.995548 9.96473 0.437012 10.5513 0.437012 11.2763V18.7564C0.437012 19.48 0.995548 20.0674 1.68457 20.0674H19.1897C19.8792 20.0674 20.437 19.48 20.437 18.7564V11.2763C20.4368 10.5513 19.8787 9.96473 19.1895 9.96473Z" fill="#1A1A1A"/>
<path d="M6.97579 5.87488H8.59847V10.4577C8.59847 10.6537 8.74896 10.8113 8.93408 10.8113H11.9382C12.1241 10.8113 12.2738 10.6537 12.2738 10.4577V5.87488H13.8977C14.0231 5.87488 14.1382 5.80049 14.1955 5.68397C14.2239 5.62671 14.2366 5.56175 14.2322 5.49681C14.2278 5.43187 14.2065 5.36968 14.1707 5.31762L10.6982 0.214833C10.6663 0.168821 10.625 0.131551 10.5777 0.105962C10.5303 0.0803742 10.4781 0.0671678 10.4253 0.0673855C10.3168 0.0673855 10.2151 0.122578 10.1516 0.216166L6.70165 5.31788C6.66627 5.37016 6.6452 5.43234 6.64088 5.4972C6.63656 5.56205 6.64918 5.62691 6.67725 5.68424C6.73457 5.80182 6.85043 5.87488 6.97579 5.87488Z" fill="#1A1A1A"/>
</svg>
