<svg width="23" height="21" viewBox="0 0 23 21" fill="none" xmlns="http://www.w3.org/2000/svg">
<path d="M20.0975 3.14431H16.687L15.8745 0.649801C15.8184 0.479108 15.7155 0.331564 15.58 0.227321C15.4444 0.123079 15.2828 0.0672228 15.1172 0.0673832H7.42351C7.08497 0.0673832 6.78153 0.3009 6.66869 0.649801L5.85368 3.14431H2.44318C1.33477 3.14431 0.437012 4.12782 0.437012 5.34211V17.8696C0.437012 19.0839 1.33477 20.0674 2.44318 20.0674H20.0975C21.2059 20.0674 22.1037 19.0839 22.1037 17.8696V5.34211C22.1037 4.12782 21.2059 3.14431 20.0975 3.14431ZM11.2703 15.6718C9.05352 15.6718 7.258 13.7047 7.258 11.2762C7.258 8.8476 9.05352 6.88057 11.2703 6.88057C13.4872 6.88057 15.2827 8.8476 15.2827 11.2762C15.2827 13.7047 13.4872 15.6718 11.2703 15.6718ZM8.86294 11.2762C8.86294 11.9756 9.11657 12.6465 9.56805 13.1411C10.0195 13.6357 10.6319 13.9135 11.2703 13.9135C11.9088 13.9135 12.5212 13.6357 12.9726 13.1411C13.4241 12.6465 13.6778 11.9756 13.6778 11.2762C13.6778 10.5767 13.4241 9.90588 12.9726 9.41128C12.5212 8.91668 11.9088 8.63881 11.2703 8.63881C10.6319 8.63881 10.0195 8.91668 9.56805 9.41128C9.11657 9.90588 8.86294 10.5767 8.86294 11.2762Z" fill="#1A1A1A"/>
</svg>
